<?xml version="1.0" standalone="no"?>
<!DOCTYPE svg PUBLIC "-//W3C//DTD SVG 20010904//EN"
 "http://www.w3.org/TR/2001/REC-SVG-20010904/DTD/svg10.dtd">
<svg version="1.0" xmlns="http://www.w3.org/2000/svg"
 width="787.000000pt" height="787.000000pt" viewBox="0 0 787.000000 787.000000"
 preserveAspectRatio="xMidYMid meet">
<metadata>
Created by potrace 1.11, written by Peter Selinger 2001-2013
</metadata>
<g transform="translate(0.000000,787.000000) scale(0.100000,-0.100000)"
fill="#000000" stroke="none">
<path d="M2535 5854 c-200 -27 -293 -53 -420 -116 -217 -108 -401 -298 -543
-558 -104 -191 -140 -331 -149 -576 -13 -384 66 -669 274 -984 98 -148 173
-237 314 -375 189 -184 334 -296 744 -575 509 -347 624 -438 903 -717 245
-245 253 -250 339 -207 36 17 72 48 114 97 74 86 280 284 399 383 123 103 277
214 605 439 329 224 443 308 600 441 338 283 578 621 679 956 77 253 86 595
24 847 -41 163 -183 416 -325 578 -111 127 -303 254 -463 308 -328 110 -763
71 -1115 -99 -49 -24 -160 -93 -245 -152 -241 -168 -253 -174 -327 -174 -80 0
-104 12 -293 145 -80 56 -177 120 -215 143 -137 79 -330 146 -505 176 -86 15
-340 28 -395 20z"/>
</g>
</svg>
